<?xml version="1.0" ?><!DOCTYPE svg  PUBLIC '-//W3C//DTD SVG 1.1//EN'  'http://www.w3.org/Graphics/SVG/1.1/DTD/svg11.dtd'><svg height="32px" id="Layer_1" style="enable-background:new 0 0 32 32;" version="1.1" viewBox="0 0 32 32" width="32px" xml:space="preserve" xmlns="http://www.w3.org/2000/svg" xmlns:xlink="http://www.w3.org/1999/xlink"><g transform="translate(384 288)"><path d="M-356.034-279.721l-1.062-1.062l-1.332,1.332c0.186,0.879-0.063,1.831-0.746,2.513c-1.074,1.074-2.814,1.074-3.889,0   s-1.074-2.815,0-3.889c0.682-0.684,1.633-0.932,2.512-0.746l1.332-1.332l-1.061-1.062c-0.732-0.731-8.283-0.731-9.017,0   l-11.711,11.711c-0.731,0.732-0.731,1.919,0,2.652l10.607,10.607c0.731,0.731,1.919,0.731,2.652,0l11.711-11.712   c0.73-0.732,0.73-8.283,0-9.017L-356.034-279.721z"/><path d="M-361.383-278.615c0.293,0.293,0.769,0.293,1.062,0l5.657-5.657c0.293-0.293,0.293-0.768,0-1.061   c-0.293-0.294-0.77-0.294-1.063,0l-5.656,5.656C-361.676-279.384-361.676-278.908-361.383-278.615z"/></g></svg>